<?xml version="1.0" standalone="no"?>
<!DOCTYPE svg PUBLIC "-//W3C//DTD SVG 20010904//EN"
 "http://www.w3.org/TR/2001/REC-SVG-20010904/DTD/svg10.dtd">
<svg version="1.0" xmlns="http://www.w3.org/2000/svg"
 width="300.000000pt" height="300.000000pt" viewBox="0 0 300.000000 300.000000"
 preserveAspectRatio="xMidYMid meet">
<metadata>
Created by potrace 1.11, written by Peter Selinger 2001-2013
</metadata>
<g transform="translate(0.000000,300.000000) scale(0.100000,-0.100000)"
fill="#000000" stroke="none">
<path d="M804 2953 c3 -16 34 -118 70 -228 35 -110 64 -201 62 -202 -1 -1 -43
8 -94 21 -51 12 -92 18 -92 13 0 -5 14 -32 30 -59 17 -26 30 -51 30 -54 0 -3
8 -18 19 -32 10 -15 29 -47 42 -72 95 -177 234 -409 241 -402 4 4 -19 99 -52
210 -33 110 -60 206 -60 211 0 9 59 8 143 -4 l28 -3 -26 46 c-147 264 -332
582 -338 582 -5 0 -6 -12 -3 -27z"/>
<path d="M1234 1699 l-150 -91 22 -67 c35 -101 144 -442 144 -450 0 -11 -102
-33 -110 -24 -4 5 -36 72 -70 151 -56 128 -64 141 -79 129 -9 -8 -66 -44 -127
-81 l-111 -67 33 -106 c18 -59 32 -108 31 -109 -1 -1 -67 -17 -147 -36 l-145
-34 -6 -37 c-8 -49 -23 -64 -72 -72 -81 -14 -77 4 -77 -377 0 -186 -3 -338 -7
-339 -5 0 -15 -2 -23 -4 -8 -2 -26 -5 -40 -8 -119 -24 -260 -60 -260 -67 0 -4
663 -7 1473 -7 l1472 0 -97 46 -98 45 -1 85 c0 48 0 194 0 327 1 235 1 241
-22 275 -14 21 -38 40 -66 50 -33 12 -47 24 -58 50 -18 44 -11 40 -292 155
-47 19 -131 57 -189 84 -57 28 -134 59 -171 71 -84 26 -206 28 -275 4 -40 -14
-51 -14 -61 -3 -7 7 -58 117 -113 243 -55 127 -113 258 -129 293 l-28 62 -151
-91z m447 -948 c1 -49 -1 -174 -3 -177 -4 -3 -84 -13 -168 -20 -41 -3 -97 -10
-125 -14 -27 -4 -51 -7 -53 -5 -1 1 -3 41 -4 90 -1 66 2 89 13 95 12 6 105 22
264 46 22 3 41 7 43 8 1 2 9 3 17 3 9 0 15 -10 16 -26z m454 -12 c22 -6 59
-17 83 -26 41 -15 42 -17 42 -62 0 -25 -3 -62 -6 -82 l-6 -37 -52 5 c-28 2
-69 5 -91 6 l-40 2 2 85 c1 118 1 120 16 120 6 0 30 -5 52 -11z m-972 -133 c1
-52 -2 -86 -8 -87 -14 -1 -77 -8 -169 -19 -44 -6 -81 -9 -82 -7 -6 6 -10 167
-5 168 3 0 15 2 26 4 36 7 99 15 160 21 33 3 62 8 64 10 9 9 12 -7 14 -90z
m1311 -5 c-1 -20 -3 -51 -3 -70 l-1 -33 -54 5 c-69 6 -75 10 -71 50 2 17 4 53
4 79 l1 46 63 -20 c63 -21 63 -21 61 -57z m-1717 -49 c-1 -43 -6 -77 -12 -78
-5 0 -46 -4 -90 -9 -44 -4 -87 -9 -96 -10 -13 -1 -15 10 -13 69 2 86 3 91 9
84 3 -3 25 -2 48 3 23 4 62 10 87 14 25 4 47 8 49 11 13 13 20 -16 18 -84z
m1859 47 l44 -11 0 -70 0 -70 -26 6 c-15 4 -39 10 -55 13 -29 5 -29 6 -29 74
0 75 -1 75 66 58z m-935 -166 c4 -110 3 -166 -3 -176 -9 -15 -347 -18 -349 -2
-4 33 -3 165 1 166 41 5 70 8 150 13 52 4 95 8 96 9 1 1 25 3 53 5 43 3 51 0
52 -15z m507 -9 c28 -4 52 -7 53 -8 0 0 3 -38 5 -82 l6 -81 -88 1 -88 1 -1 93
-1 93 31 -5 c16 -3 54 -8 83 -12z m-1027 -34 c1 -11 1 -42 1 -70 0 -100 15
-90 -132 -90 -71 0 -130 3 -131 8 -5 32 -4 133 0 141 4 6 40 13 81 17 41 3 76
7 77 8 1 0 24 2 52 4 45 2 51 0 52 -18z m1245 6 c16 -2 38 -4 50 -5 18 -1 20
-8 21 -77 l0 -75 -51 2 c-85 4 -81 0 -78 89 3 59 7 78 16 74 7 -3 26 -6 42 -8z
m-1649 -101 l1 -71 -104 -1 -104 -1 -1 27 c0 14 -2 43 -3 64 -3 36 -2 37 33
38 45 0 145 9 148 13 2 1 9 3 17 3 10 0 13 -19 13 -72z m1891 56 c8 -1 12 -21
12 -65 l0 -64 -36 4 c-70 6 -73 9 -73 75 l1 61 41 -6 c23 -3 48 -5 55 -5z"/>
</g>
</svg>
